<svg width="640" height="640" viewBox="0 0 640 640" fill="none" xmlns="http://www.w3.org/2000/svg">
<path d="M96 160C96 142.3 110.3 128 128 128H512C529.7 128 544 142.3 544 160C544 177.7 529.7 192 512 192H128C110.3 192 96 177.7 96 160ZM96 320C96 302.3 110.3 288 128 288H512C529.7 288 544 302.3 544 320C544 337.7 529.7 352 512 352H128C110.3 352 96 337.7 96 320ZM544 480C544 497.7 529.7 512 512 512H128C110.3 512 96 497.7 96 480C96 462.3 110.3 448 128 448H512C529.7 448 544 462.3 544 480Z" fill="white"/>
</svg>
